<?xml version="1.0" encoding="utf-8" standalone="no"?>
<!DOCTYPE svg PUBLIC "-//W3C//DTD SVG 1.1//EN"
  "http://www.w3.org/Graphics/SVG/1.1/DTD/svg11.dtd">
<svg xmlns:xlink="http://www.w3.org/1999/xlink" width="623.346875pt" height="596.590625pt" viewBox="0 0 623.346875 596.590625" xmlns="http://www.w3.org/2000/svg" version="1.1">
 <metadata>
  <rdf:RDF xmlns:dc="http://purl.org/dc/elements/1.1/" xmlns:cc="http://creativecommons.org/ns#" xmlns:rdf="http://www.w3.org/1999/02/22-rdf-syntax-ns#">
   <cc:Work>
    <dc:type rdf:resource="http://purl.org/dc/dcmitype/StillImage"/>
    <dc:date>2025-11-11T21:31:11.002300</dc:date>
    <dc:format>image/svg+xml</dc:format>
    <dc:creator>
     <cc:Agent>
      <dc:title>Matplotlib v3.7.1, https://matplotlib.org/</dc:title>
     </cc:Agent>
    </dc:creator>
   </cc:Work>
  </rdf:RDF>
 </metadata>
 <defs>
  <style type="text/css">*{stroke-linejoin: round; stroke-linecap: butt}</style>
 </defs>
 <g id="figure_1">
  <g id="patch_1">
   <path d="M 0 596.590625 
L 623.346875 596.590625 
L 623.346875 0 
L 0 0 
z
" style="fill: #ffffff"/>
  </g>
  <g id="axes_1">
   <g id="patch_2">
    <path d="M 61.746875 561.6 
L 616.146875 561.6 
L 616.146875 7.2 
L 61.746875 7.2 
z
" style="fill: #eaeaf2"/>
   </g>
   <g id="matplotlib.axis_1">
    <g id="xtick_1">
     <g id="line2d_1">
      <path d="M 117.186875 561.6 
L 117.186875 7.2 
" clip-path="url(#pefbd2dfaaf)" style="fill: none; stroke: #ffffff; stroke-linecap: round"/>
     </g>
     <g id="text_1">
      <!-- −400 -->
      <g style="fill: #262626" transform="translate(94.663437 585.415625) scale(0.2 -0.2)">
       <defs>
        <path id="ArialMT-2212" d="M 3381 1997 
L 356 1997 
L 356 2522 
L 3381 2522 
L 3381 1997 
z
" transform="scale(0.015625)"/>
        <path id="ArialMT-34" d="M 2069 0 
L 2069 1097 
L 81 1097 
L 81 1613 
L 2172 4581 
L 2631 4581 
L 2631 1613 
L 3250 1613 
L 3250 1097 
L 2631 1097 
L 2631 0 
L 2069 0 
z
M 2069 1613 
L 2069 3678 
L 634 1613 
L 2069 1613 
z
" transform="scale(0.015625)"/>
        <path id="ArialMT-30" d="M 266 2259 
Q 266 3072 433 3567 
Q 600 4063 929 4331 
Q 1259 4600 1759 4600 
Q 2128 4600 2406 4451 
Q 2684 4303 2865 4023 
Q 3047 3744 3150 3342 
Q 3253 2941 3253 2259 
Q 3253 1453 3087 958 
Q 2922 463 2592 192 
Q 2263 -78 1759 -78 
Q 1097 -78 719 397 
Q 266 969 266 2259 
z
M 844 2259 
Q 844 1131 1108 757 
Q 1372 384 1759 384 
Q 2147 384 2411 759 
Q 2675 1134 2675 2259 
Q 2675 3391 2411 3762 
Q 2147 4134 1753 4134 
Q 1366 4134 1134 3806 
Q 844 3388 844 2259 
z
" transform="scale(0.015625)"/>
       </defs>
       <use xlink:href="#ArialMT-2212"/>
       <use xlink:href="#ArialMT-34" x="58.398438"/>
       <use xlink:href="#ArialMT-30" x="114.013672"/>
       <use xlink:href="#ArialMT-30" x="169.628906"/>
      </g>
     </g>
    </g>
    <g id="xtick_2">
     <g id="line2d_2">
      <path d="M 228.066875 561.6 
L 228.066875 7.2 
" clip-path="url(#pefbd2dfaaf)" style="fill: none; stroke: #ffffff; stroke-linecap: round"/>
     </g>
     <g id="text_2">
      <!-- −200 -->
      <g style="fill: #262626" transform="translate(205.543437 585.415625) scale(0.2 -0.2)">
       <defs>
        <path id="ArialMT-32" d="M 3222 541 
L 3222 0 
L 194 0 
Q 188 203 259 391 
Q 375 700 629 1000 
Q 884 1300 1366 1694 
Q 2113 2306 2375 2664 
Q 2638 3022 2638 3341 
Q 2638 3675 2398 3904 
Q 2159 4134 1775 4134 
Q 1369 4134 1125 3890 
Q 881 3647 878 3216 
L 300 3275 
Q 359 3922 746 4261 
Q 1134 4600 1788 4600 
Q 2447 4600 2831 4234 
Q 3216 3869 3216 3328 
Q 3216 3053 3103 2787 
Q 2991 2522 2730 2228 
Q 2469 1934 1863 1422 
Q 1356 997 1212 845 
Q 1069 694 975 541 
L 3222 541 
z
" transform="scale(0.015625)"/>
       </defs>
       <use xlink:href="#ArialMT-2212"/>
       <use xlink:href="#ArialMT-32" x="58.398438"/>
       <use xlink:href="#ArialMT-30" x="114.013672"/>
       <use xlink:href="#ArialMT-30" x="169.628906"/>
      </g>
     </g>
    </g>
    <g id="xtick_3">
     <g id="line2d_3">
      <path d="M 338.946875 561.6 
L 338.946875 7.2 
" clip-path="url(#pefbd2dfaaf)" style="fill: none; stroke: #ffffff; stroke-linecap: round"/>
     </g>
     <g id="text_3">
      <!-- 0 -->
      <g style="fill: #262626" transform="translate(333.385937 585.415625) scale(0.2 -0.2)">
       <use xlink:href="#ArialMT-30"/>
      </g>
     </g>
    </g>
    <g id="xtick_4">
     <g id="line2d_4">
      <path d="M 449.826875 561.6 
L 449.826875 7.2 
" clip-path="url(#pefbd2dfaaf)" style="fill: none; stroke: #ffffff; stroke-linecap: round"/>
     </g>
     <g id="text_4">
      <!-- 200 -->
      <g style="fill: #262626" transform="translate(433.144062 585.415625) scale(0.2 -0.2)">
       <use xlink:href="#ArialMT-32"/>
       <use xlink:href="#ArialMT-30" x="55.615234"/>
       <use xlink:href="#ArialMT-30" x="111.230469"/>
      </g>
     </g>
    </g>
    <g id="xtick_5">
     <g id="line2d_5">
      <path d="M 560.706875 561.6 
L 560.706875 7.2 
" clip-path="url(#pefbd2dfaaf)" style="fill: none; stroke: #ffffff; stroke-linecap: round"/>
     </g>
     <g id="text_5">
      <!-- 400 -->
      <g style="fill: #262626" transform="translate(544.024062 585.415625) scale(0.2 -0.2)">
       <use xlink:href="#ArialMT-34"/>
       <use xlink:href="#ArialMT-30" x="55.615234"/>
       <use xlink:href="#ArialMT-30" x="111.230469"/>
      </g>
     </g>
    </g>
   </g>
   <g id="matplotlib.axis_2">
    <g id="ytick_1">
     <g id="line2d_6">
      <path d="M 61.746875 506.16 
L 616.146875 506.16 
" clip-path="url(#pefbd2dfaaf)" style="fill: none; stroke: #ffffff; stroke-linecap: round"/>
     </g>
     <g id="text_6">
      <!-- −400 -->
      <g style="fill: #262626" transform="translate(7.2 513.317813) scale(0.2 -0.2)">
       <use xlink:href="#ArialMT-2212"/>
       <use xlink:href="#ArialMT-34" x="58.398438"/>
       <use xlink:href="#ArialMT-30" x="114.013672"/>
       <use xlink:href="#ArialMT-30" x="169.628906"/>
      </g>
     </g>
    </g>
    <g id="ytick_2">
     <g id="line2d_7">
      <path d="M 61.746875 395.28 
L 616.146875 395.28 
" clip-path="url(#pefbd2dfaaf)" style="fill: none; stroke: #ffffff; stroke-linecap: round"/>
     </g>
     <g id="text_7">
      <!-- −200 -->
      <g style="fill: #262626" transform="translate(7.2 402.437813) scale(0.2 -0.2)">
       <use xlink:href="#ArialMT-2212"/>
       <use xlink:href="#ArialMT-32" x="58.398438"/>
       <use xlink:href="#ArialMT-30" x="114.013672"/>
       <use xlink:href="#ArialMT-30" x="169.628906"/>
      </g>
     </g>
    </g>
    <g id="ytick_3">
     <g id="line2d_8">
      <path d="M 61.746875 284.4 
L 616.146875 284.4 
" clip-path="url(#pefbd2dfaaf)" style="fill: none; stroke: #ffffff; stroke-linecap: round"/>
     </g>
     <g id="text_8">
      <!-- 0 -->
      <g style="fill: #262626" transform="translate(41.125 291.557813) scale(0.2 -0.2)">
       <use xlink:href="#ArialMT-30"/>
      </g>
     </g>
    </g>
    <g id="ytick_4">
     <g id="line2d_9">
      <path d="M 61.746875 173.52 
L 616.146875 173.52 
" clip-path="url(#pefbd2dfaaf)" style="fill: none; stroke: #ffffff; stroke-linecap: round"/>
     </g>
     <g id="text_9">
      <!-- 200 -->
      <g style="fill: #262626" transform="translate(18.88125 180.677813) scale(0.2 -0.2)">
       <use xlink:href="#ArialMT-32"/>
       <use xlink:href="#ArialMT-30" x="55.615234"/>
       <use xlink:href="#ArialMT-30" x="111.230469"/>
      </g>
     </g>
    </g>
    <g id="ytick_5">
     <g id="line2d_10">
      <path d="M 61.746875 62.64 
L 616.146875 62.64 
" clip-path="url(#pefbd2dfaaf)" style="fill: none; stroke: #ffffff; stroke-linecap: round"/>
     </g>
     <g id="text_10">
      <!-- 400 -->
      <g style="fill: #262626" transform="translate(18.88125 69.797813) scale(0.2 -0.2)">
       <use xlink:href="#ArialMT-34"/>
       <use xlink:href="#ArialMT-30" x="55.615234"/>
       <use xlink:href="#ArialMT-30" x="111.230469"/>
      </g>
     </g>
    </g>
   </g>
   <g id="PathCollection_1">
    <defs>
     <path id="m36294fcbfe" d="M 0 2.236068 
C 0.593012 2.236068 1.161816 2.000462 1.581139 1.581139 
C 2.000462 1.161816 2.236068 0.593012 2.236068 0 
C 2.236068 -0.593012 2.000462 -1.161816 1.581139 -1.581139 
C 1.161816 -2.000462 0.593012 -2.236068 0 -2.236068 
C -0.593012 -2.236068 -1.161816 -2.000462 -1.581139 -1.581139 
C -2.000462 -1.161816 -2.236068 -0.593012 -2.236068 0 
C -2.236068 0.593012 -2.000462 1.161816 -1.581139 1.581139 
C -1.161816 2.000462 -0.593012 2.236068 0 2.236068 
z
" style="stroke: #55a868"/>
    </defs>
    <g clip-path="url(#pefbd2dfaaf)">
     <use xlink:href="#m36294fcbfe" x="474.97638" y="194.592377" style="fill: #55a868; stroke: #55a868"/>
     <use xlink:href="#m36294fcbfe" x="162.055343" y="156.357016" style="fill: #55a868; stroke: #55a868"/>
     <use xlink:href="#m36294fcbfe" x="165.228965" y="503.395394" style="fill: #55a868; stroke: #55a868"/>
     <use xlink:href="#m36294fcbfe" x="259.101686" y="240.441061" style="fill: #55a868; stroke: #55a868"/>
     <use xlink:href="#m36294fcbfe" x="244.897233" y="321.200483" style="fill: #55a868; stroke: #55a868"/>
     <use xlink:href="#m36294fcbfe" x="156.330056" y="127.529705" style="fill: #55a868; stroke: #55a868"/>
     <use xlink:href="#m36294fcbfe" x="215.75819" y="68.145797" style="fill: #55a868; stroke: #55a868"/>
     <use xlink:href="#m36294fcbfe" x="468.918754" y="211.904417" style="fill: #55a868; stroke: #55a868"/>
     <use xlink:href="#m36294fcbfe" x="118.044259" y="361.989234" style="fill: #55a868; stroke: #55a868"/>
     <use xlink:href="#m36294fcbfe" x="336.324895" y="342.50964" style="fill: #55a868; stroke: #55a868"/>
     <use xlink:href="#m36294fcbfe" x="306.980778" y="489.21527" style="fill: #55a868; stroke: #55a868"/>
     <use xlink:href="#m36294fcbfe" x="441.42963" y="306.202447" style="fill: #55a868; stroke: #55a868"/>
     <use xlink:href="#m36294fcbfe" x="543.063325" y="137.970893" style="fill: #55a868; stroke: #55a868"/>
     <use xlink:href="#m36294fcbfe" x="564.630345" y="138.976962" style="fill: #55a868; stroke: #55a868"/>
     <use xlink:href="#m36294fcbfe" x="379.678897" y="386.230513" style="fill: #55a868; stroke: #55a868"/>
     <use xlink:href="#m36294fcbfe" x="368.721376" y="34.911236" style="fill: #55a868; stroke: #55a868"/>
     <use xlink:href="#m36294fcbfe" x="370.920975" y="30.463211" style="fill: #55a868; stroke: #55a868"/>
     <use xlink:href="#m36294fcbfe" x="138.953047" y="131.124405" style="fill: #55a868; stroke: #55a868"/>
     <use xlink:href="#m36294fcbfe" x="327.220997" y="187.891967" style="fill: #55a868; stroke: #55a868"/>
     <use xlink:href="#m36294fcbfe" x="523.819717" y="115.883143" style="fill: #55a868; stroke: #55a868"/>
     <use xlink:href="#m36294fcbfe" x="162.285" y="409.260158" style="fill: #55a868; stroke: #55a868"/>
     <use xlink:href="#m36294fcbfe" x="73.86507" y="331.654225" style="fill: #55a868; stroke: #55a868"/>
     <use xlink:href="#m36294fcbfe" x="196.199551" y="432.314861" style="fill: #55a868; stroke: #55a868"/>
     <use xlink:href="#m36294fcbfe" x="365.210289" y="361.463613" style="fill: #55a868; stroke: #55a868"/>
     <use xlink:href="#m36294fcbfe" x="342.841735" y="548.125312" style="fill: #55a868; stroke: #55a868"/>
     <use xlink:href="#m36294fcbfe" x="75.956217" y="224.22882" style="fill: #55a868; stroke: #55a868"/>
     <use xlink:href="#m36294fcbfe" x="519.342355" y="330.242678" style="fill: #55a868; stroke: #55a868"/>
     <use xlink:href="#m36294fcbfe" x="504.216141" y="346.237425" style="fill: #55a868; stroke: #55a868"/>
     <use xlink:href="#m36294fcbfe" x="554.24262" y="389.826449" style="fill: #55a868; stroke: #55a868"/>
     <use xlink:href="#m36294fcbfe" x="418.333883" y="409.1981" style="fill: #55a868; stroke: #55a868"/>
     <use xlink:href="#m36294fcbfe" x="592.149652" y="11.344025" style="fill: #55a868; stroke: #55a868"/>
     <use xlink:href="#m36294fcbfe" x="272.164888" y="49.685536" style="fill: #55a868; stroke: #55a868"/>
     <use xlink:href="#m36294fcbfe" x="95.121474" y="289.67059" style="fill: #55a868; stroke: #55a868"/>
     <use xlink:href="#m36294fcbfe" x="500.939889" y="446.812434" style="fill: #55a868; stroke: #55a868"/>
     <use xlink:href="#m36294fcbfe" x="561.709965" y="239.35879" style="fill: #55a868; stroke: #55a868"/>
     <use xlink:href="#m36294fcbfe" x="327.56611" y="258.911677" style="fill: #55a868; stroke: #55a868"/>
     <use xlink:href="#m36294fcbfe" x="579.387624" y="118.537827" style="fill: #55a868; stroke: #55a868"/>
     <use xlink:href="#m36294fcbfe" x="93.449747" y="123.999228" style="fill: #55a868; stroke: #55a868"/>
     <use xlink:href="#m36294fcbfe" x="99.428412" y="87.672459" style="fill: #55a868; stroke: #55a868"/>
     <use xlink:href="#m36294fcbfe" x="326.54522" y="254.959445" style="fill: #55a868; stroke: #55a868"/>
     <use xlink:href="#m36294fcbfe" x="389.747599" y="391.87046" style="fill: #55a868; stroke: #55a868"/>
     <use xlink:href="#m36294fcbfe" x="242.502813" y="36.318757" style="fill: #55a868; stroke: #55a868"/>
     <use xlink:href="#m36294fcbfe" x="352.089715" y="498.852978" style="fill: #55a868; stroke: #55a868"/>
     <use xlink:href="#m36294fcbfe" x="112.338345" y="291.008574" style="fill: #55a868; stroke: #55a868"/>
     <use xlink:href="#m36294fcbfe" x="370.587367" y="129.657465" style="fill: #55a868; stroke: #55a868"/>
     <use xlink:href="#m36294fcbfe" x="582.922228" y="209.566118" style="fill: #55a868; stroke: #55a868"/>
     <use xlink:href="#m36294fcbfe" x="524.471773" y="156.372412" style="fill: #55a868; stroke: #55a868"/>
     <use xlink:href="#m36294fcbfe" x="514.020602" y="16.999893" style="fill: #55a868; stroke: #55a868"/>
     <use xlink:href="#m36294fcbfe" x="442.722136" y="480.915732" style="fill: #55a868; stroke: #55a868"/>
     <use xlink:href="#m36294fcbfe" x="609.602999" y="550.174484" style="fill: #55a868; stroke: #55a868"/>
     <use xlink:href="#m36294fcbfe" x="212.016379" y="518.563753" style="fill: #55a868; stroke: #55a868"/>
     <use xlink:href="#m36294fcbfe" x="290.863368" y="357.18378" style="fill: #55a868; stroke: #55a868"/>
     <use xlink:href="#m36294fcbfe" x="579.030736" y="42.545199" style="fill: #55a868; stroke: #55a868"/>
     <use xlink:href="#m36294fcbfe" x="171.150392" y="429.226104" style="fill: #55a868; stroke: #55a868"/>
     <use xlink:href="#m36294fcbfe" x="129.573539" y="143.964091" style="fill: #55a868; stroke: #55a868"/>
     <use xlink:href="#m36294fcbfe" x="240.878053" y="139.8089" style="fill: #55a868; stroke: #55a868"/>
     <use xlink:href="#m36294fcbfe" x="373.729723" y="375.055482" style="fill: #55a868; stroke: #55a868"/>
     <use xlink:href="#m36294fcbfe" x="358.287666" y="333.20395" style="fill: #55a868; stroke: #55a868"/>
     <use xlink:href="#m36294fcbfe" x="590.152574" y="259.691335" style="fill: #55a868; stroke: #55a868"/>
     <use xlink:href="#m36294fcbfe" x="155.635923" y="64.369387" style="fill: #55a868; stroke: #55a868"/>
     <use xlink:href="#m36294fcbfe" x="494.826465" y="450.713825" style="fill: #55a868; stroke: #55a868"/>
     <use xlink:href="#m36294fcbfe" x="498.230353" y="540.075007" style="fill: #55a868; stroke: #55a868"/>
     <use xlink:href="#m36294fcbfe" x="192.676908" y="128.953874" style="fill: #55a868; stroke: #55a868"/>
     <use xlink:href="#m36294fcbfe" x="364.731415" y="65.064519" style="fill: #55a868; stroke: #55a868"/>
     <use xlink:href="#m36294fcbfe" x="95.714162" y="290.791064" style="fill: #55a868; stroke: #55a868"/>
     <use xlink:href="#m36294fcbfe" x="380.220168" y="211.460566" style="fill: #55a868; stroke: #55a868"/>
     <use xlink:href="#m36294fcbfe" x="140.169892" y="426.395429" style="fill: #55a868; stroke: #55a868"/>
     <use xlink:href="#m36294fcbfe" x="461.876379" y="63.645493" style="fill: #55a868; stroke: #55a868"/>
     <use xlink:href="#m36294fcbfe" x="113.488833" y="301.960021" style="fill: #55a868; stroke: #55a868"/>
     <use xlink:href="#m36294fcbfe" x="247.212692" y="83.888503" style="fill: #55a868; stroke: #55a868"/>
     <use xlink:href="#m36294fcbfe" x="166.382617" y="171.892465" style="fill: #55a868; stroke: #55a868"/>
     <use xlink:href="#m36294fcbfe" x="230.012063" y="484.774707" style="fill: #55a868; stroke: #55a868"/>
     <use xlink:href="#m36294fcbfe" x="479.659239" y="535.612365" style="fill: #55a868; stroke: #55a868"/>
     <use xlink:href="#m36294fcbfe" x="69.246993" y="474.462999" style="fill: #55a868; stroke: #55a868"/>
     <use xlink:href="#m36294fcbfe" x="466.538732" y="59.198923" style="fill: #55a868; stroke: #55a868"/>
     <use xlink:href="#m36294fcbfe" x="517.785744" y="347.739845" style="fill: #55a868; stroke: #55a868"/>
     <use xlink:href="#m36294fcbfe" x="217.224843" y="343.347585" style="fill: #55a868; stroke: #55a868"/>
     <use xlink:href="#m36294fcbfe" x="470.512214" y="474.214443" style="fill: #55a868; stroke: #55a868"/>
     <use xlink:href="#m36294fcbfe" x="459.19476" y="59.697762" style="fill: #55a868; stroke: #55a868"/>
     <use xlink:href="#m36294fcbfe" x="149.29257" y="145.084058" style="fill: #55a868; stroke: #55a868"/>
     <use xlink:href="#m36294fcbfe" x="459.182409" y="33.558465" style="fill: #55a868; stroke: #55a868"/>
     <use xlink:href="#m36294fcbfe" x="605.208845" y="34.425155" style="fill: #55a868; stroke: #55a868"/>
     <use xlink:href="#m36294fcbfe" x="510.987881" y="278.054397" style="fill: #55a868; stroke: #55a868"/>
     <use xlink:href="#m36294fcbfe" x="306.825141" y="314.180711" style="fill: #55a868; stroke: #55a868"/>
     <use xlink:href="#m36294fcbfe" x="244.813366" y="38.266161" style="fill: #55a868; stroke: #55a868"/>
     <use xlink:href="#m36294fcbfe" x="418.370427" y="347.905532" style="fill: #55a868; stroke: #55a868"/>
     <use xlink:href="#m36294fcbfe" x="310.573279" y="483.057366" style="fill: #55a868; stroke: #55a868"/>
     <use xlink:href="#m36294fcbfe" x="361.98388" y="10.116792" style="fill: #55a868; stroke: #55a868"/>
     <use xlink:href="#m36294fcbfe" x="416.972043" y="206.741364" style="fill: #55a868; stroke: #55a868"/>
     <use xlink:href="#m36294fcbfe" x="390.673843" y="510.581902" style="fill: #55a868; stroke: #55a868"/>
     <use xlink:href="#m36294fcbfe" x="523.616249" y="434.939158" style="fill: #55a868; stroke: #55a868"/>
     <use xlink:href="#m36294fcbfe" x="399.378032" y="389.451186" style="fill: #55a868; stroke: #55a868"/>
     <use xlink:href="#m36294fcbfe" x="612.317441" y="177.447733" style="fill: #55a868; stroke: #55a868"/>
     <use xlink:href="#m36294fcbfe" x="312.997967" y="454.980123" style="fill: #55a868; stroke: #55a868"/>
     <use xlink:href="#m36294fcbfe" x="210.944141" y="479.750102" style="fill: #55a868; stroke: #55a868"/>
     <use xlink:href="#m36294fcbfe" x="252.037298" y="142.98083" style="fill: #55a868; stroke: #55a868"/>
     <use xlink:href="#m36294fcbfe" x="187.202174" y="90.398372" style="fill: #55a868; stroke: #55a868"/>
     <use xlink:href="#m36294fcbfe" x="466.761318" y="222.129213" style="fill: #55a868; stroke: #55a868"/>
     <use xlink:href="#m36294fcbfe" x="123.931731" y="240.322459" style="fill: #55a868; stroke: #55a868"/>
     <use xlink:href="#m36294fcbfe" x="487.484184" y="45.545199" style="fill: #55a868; stroke: #55a868"/>
    </g>
   </g>
   <g id="PathCollection_2">
    <defs>
     <path id="md3f01be713" d="M 0 2.236068 
C 0.593012 2.236068 1.161816 2.000462 1.581139 1.581139 
C 2.000462 1.161816 2.236068 0.593012 2.236068 0 
C 2.236068 -0.593012 2.000462 -1.161816 1.581139 -1.581139 
C 1.161816 -2.000462 0.593012 -2.236068 0 -2.236068 
C -0.593012 -2.236068 -1.161816 -2.000462 -1.581139 -1.581139 
C -2.000462 -1.161816 -2.236068 -0.593012 -2.236068 0 
C -2.236068 0.593012 -2.000462 1.161816 -1.581139 1.581139 
C -1.161816 2.000462 -0.593012 2.236068 0 2.236068 
z
" style="stroke: #4c72b0"/>
    </defs>
    <g clip-path="url(#pefbd2dfaaf)">
     <use xlink:href="#md3f01be713" x="79.685982" y="40.047472" style="fill: #4c72b0; stroke: #4c72b0"/>
     <use xlink:href="#md3f01be713" x="193.838614" y="291.865628" style="fill: #4c72b0; stroke: #4c72b0"/>
     <use xlink:href="#md3f01be713" x="490.788031" y="231.883864" style="fill: #4c72b0; stroke: #4c72b0"/>
     <use xlink:href="#md3f01be713" x="199.353741" y="482.798337" style="fill: #4c72b0; stroke: #4c72b0"/>
     <use xlink:href="#md3f01be713" x="401.093553" y="110.650688" style="fill: #4c72b0; stroke: #4c72b0"/>
     <use xlink:href="#md3f01be713" x="153.384062" y="530.952583" style="fill: #4c72b0; stroke: #4c72b0"/>
     <use xlink:href="#md3f01be713" x="376.736291" y="358.817668" style="fill: #4c72b0; stroke: #4c72b0"/>
     <use xlink:href="#md3f01be713" x="65.233142" y="321.555421" style="fill: #4c72b0; stroke: #4c72b0"/>
     <use xlink:href="#md3f01be713" x="524.464955" y="217.038027" style="fill: #4c72b0; stroke: #4c72b0"/>
     <use xlink:href="#md3f01be713" x="338.783451" y="366.909424" style="fill: #4c72b0; stroke: #4c72b0"/>
     <use xlink:href="#md3f01be713" x="115.027341" y="136.974858" style="fill: #4c72b0; stroke: #4c72b0"/>
     <use xlink:href="#md3f01be713" x="93.63929" y="43.419554" style="fill: #4c72b0; stroke: #4c72b0"/>
     <use xlink:href="#md3f01be713" x="331.8444" y="143.078765" style="fill: #4c72b0; stroke: #4c72b0"/>
     <use xlink:href="#md3f01be713" x="131.746389" y="280.035419" style="fill: #4c72b0; stroke: #4c72b0"/>
     <use xlink:href="#md3f01be713" x="345.197038" y="206.054159" style="fill: #4c72b0; stroke: #4c72b0"/>
     <use xlink:href="#md3f01be713" x="230.545374" y="206.861066" style="fill: #4c72b0; stroke: #4c72b0"/>
     <use xlink:href="#md3f01be713" x="337.126559" y="353.329424" style="fill: #4c72b0; stroke: #4c72b0"/>
     <use xlink:href="#md3f01be713" x="76.912476" y="152.59607" style="fill: #4c72b0; stroke: #4c72b0"/>
     <use xlink:href="#md3f01be713" x="298.190629" y="96.008255" style="fill: #4c72b0; stroke: #4c72b0"/>
     <use xlink:href="#md3f01be713" x="401.413491" y="304.199309" style="fill: #4c72b0; stroke: #4c72b0"/>
     <use xlink:href="#md3f01be713" x="160.605271" y="226.612835" style="fill: #4c72b0; stroke: #4c72b0"/>
     <use xlink:href="#md3f01be713" x="231.837626" y="176.376392" style="fill: #4c72b0; stroke: #4c72b0"/>
     <use xlink:href="#md3f01be713" x="304.042023" y="198.880188" style="fill: #4c72b0; stroke: #4c72b0"/>
     <use xlink:href="#md3f01be713" x="310.187921" y="65.395318" style="fill: #4c72b0; stroke: #4c72b0"/>
     <use xlink:href="#md3f01be713" x="276.512985" y="255.855705" style="fill: #4c72b0; stroke: #4c72b0"/>
     <use xlink:href="#md3f01be713" x="488.6567" y="444.461073" style="fill: #4c72b0; stroke: #4c72b0"/>
     <use xlink:href="#md3f01be713" x="342.164383" y="204.689062" style="fill: #4c72b0; stroke: #4c72b0"/>
     <use xlink:href="#md3f01be713" x="163.958961" y="420.047534" style="fill: #4c72b0; stroke: #4c72b0"/>
     <use xlink:href="#md3f01be713" x="65.053209" y="257.570226" style="fill: #4c72b0; stroke: #4c72b0"/>
     <use xlink:href="#md3f01be713" x="578.149411" y="10.404279" style="fill: #4c72b0; stroke: #4c72b0"/>
     <use xlink:href="#md3f01be713" x="402.40676" y="66.218306" style="fill: #4c72b0; stroke: #4c72b0"/>
     <use xlink:href="#md3f01be713" x="425.476249" y="386.586885" style="fill: #4c72b0; stroke: #4c72b0"/>
     <use xlink:href="#md3f01be713" x="148.554024" y="264.02918" style="fill: #4c72b0; stroke: #4c72b0"/>
     <use xlink:href="#md3f01be713" x="327.906188" y="375.921013" style="fill: #4c72b0; stroke: #4c72b0"/>
     <use xlink:href="#md3f01be713" x="65.057422" y="545.585998" style="fill: #4c72b0; stroke: #4c72b0"/>
     <use xlink:href="#md3f01be713" x="307.334433" y="371.860212" style="fill: #4c72b0; stroke: #4c72b0"/>
     <use xlink:href="#md3f01be713" x="158.392814" y="183.604487" style="fill: #4c72b0; stroke: #4c72b0"/>
     <use xlink:href="#md3f01be713" x="84.218161" y="434.132294" style="fill: #4c72b0; stroke: #4c72b0"/>
     <use xlink:href="#md3f01be713" x="602.810821" y="28.536347" style="fill: #4c72b0; stroke: #4c72b0"/>
     <use xlink:href="#md3f01be713" x="113.951397" y="247.073355" style="fill: #4c72b0; stroke: #4c72b0"/>
     <use xlink:href="#md3f01be713" x="239.859684" y="401.561184" style="fill: #4c72b0; stroke: #4c72b0"/>
     <use xlink:href="#md3f01be713" x="383.7982" y="257.966354" style="fill: #4c72b0; stroke: #4c72b0"/>
     <use xlink:href="#md3f01be713" x="311.117289" y="274.399195" style="fill: #4c72b0; stroke: #4c72b0"/>
     <use xlink:href="#md3f01be713" x="399.246728" y="518.678429" style="fill: #4c72b0; stroke: #4c72b0"/>
     <use xlink:href="#md3f01be713" x="264.956825" y="469.74153" style="fill: #4c72b0; stroke: #4c72b0"/>
     <use xlink:href="#md3f01be713" x="361.176804" y="291.5078" style="fill: #4c72b0; stroke: #4c72b0"/>
     <use xlink:href="#md3f01be713" x="581.541643" y="387.028326" style="fill: #4c72b0; stroke: #4c72b0"/>
     <use xlink:href="#md3f01be713" x="557.358768" y="228.30637" style="fill: #4c72b0; stroke: #4c72b0"/>
     <use xlink:href="#md3f01be713" x="344.287676" y="134.004281" style="fill: #4c72b0; stroke: #4c72b0"/>
     <use xlink:href="#md3f01be713" x="523.217301" y="380.868138" style="fill: #4c72b0; stroke: #4c72b0"/>
     <use xlink:href="#md3f01be713" x="456.948719" y="548.301506" style="fill: #4c72b0; stroke: #4c72b0"/>
     <use xlink:href="#md3f01be713" x="558.67161" y="368.785422" style="fill: #4c72b0; stroke: #4c72b0"/>
     <use xlink:href="#md3f01be713" x="358.752476" y="445.291912" style="fill: #4c72b0; stroke: #4c72b0"/>
     <use xlink:href="#md3f01be713" x="90.436855" y="174.769972" style="fill: #4c72b0; stroke: #4c72b0"/>
     <use xlink:href="#md3f01be713" x="553.482976" y="511.017277" style="fill: #4c72b0; stroke: #4c72b0"/>
     <use xlink:href="#md3f01be713" x="363.136403" y="279.454959" style="fill: #4c72b0; stroke: #4c72b0"/>
     <use xlink:href="#md3f01be713" x="409.227362" y="8.856399" style="fill: #4c72b0; stroke: #4c72b0"/>
     <use xlink:href="#md3f01be713" x="458.625657" y="311.884909" style="fill: #4c72b0; stroke: #4c72b0"/>
     <use xlink:href="#md3f01be713" x="354.716928" y="82.247163" style="fill: #4c72b0; stroke: #4c72b0"/>
     <use xlink:href="#md3f01be713" x="458.880651" y="396.741196" style="fill: #4c72b0; stroke: #4c72b0"/>
     <use xlink:href="#md3f01be713" x="294.850317" y="293.546318" style="fill: #4c72b0; stroke: #4c72b0"/>
     <use xlink:href="#md3f01be713" x="401.743131" y="559.82368" style="fill: #4c72b0; stroke: #4c72b0"/>
     <use xlink:href="#md3f01be713" x="209.587842" y="448.499338" style="fill: #4c72b0; stroke: #4c72b0"/>
     <use xlink:href="#md3f01be713" x="510.431586" y="97.231376" style="fill: #4c72b0; stroke: #4c72b0"/>
     <use xlink:href="#md3f01be713" x="341.016415" y="121.311975" style="fill: #4c72b0; stroke: #4c72b0"/>
     <use xlink:href="#md3f01be713" x="364.264433" y="366.96969" style="fill: #4c72b0; stroke: #4c72b0"/>
     <use xlink:href="#md3f01be713" x="323.241148" y="443.935757" style="fill: #4c72b0; stroke: #4c72b0"/>
     <use xlink:href="#md3f01be713" x="526.074132" y="379.573128" style="fill: #4c72b0; stroke: #4c72b0"/>
     <use xlink:href="#md3f01be713" x="467.767725" y="524.323537" style="fill: #4c72b0; stroke: #4c72b0"/>
     <use xlink:href="#md3f01be713" x="282.780156" y="123.530895" style="fill: #4c72b0; stroke: #4c72b0"/>
     <use xlink:href="#md3f01be713" x="217.641945" y="73.345953" style="fill: #4c72b0; stroke: #4c72b0"/>
     <use xlink:href="#md3f01be713" x="409.359778" y="289.052316" style="fill: #4c72b0; stroke: #4c72b0"/>
     <use xlink:href="#md3f01be713" x="435.867129" y="157.592801" style="fill: #4c72b0; stroke: #4c72b0"/>
     <use xlink:href="#md3f01be713" x="502.705059" y="379.992269" style="fill: #4c72b0; stroke: #4c72b0"/>
     <use xlink:href="#md3f01be713" x="359.977875" y="69.488028" style="fill: #4c72b0; stroke: #4c72b0"/>
     <use xlink:href="#md3f01be713" x="472.71754" y="462.843558" style="fill: #4c72b0; stroke: #4c72b0"/>
     <use xlink:href="#md3f01be713" x="190.941126" y="339.796281" style="fill: #4c72b0; stroke: #4c72b0"/>
     <use xlink:href="#md3f01be713" x="317.782089" y="355.814487" style="fill: #4c72b0; stroke: #4c72b0"/>
     <use xlink:href="#md3f01be713" x="220.209395" y="353.908691" style="fill: #4c72b0; stroke: #4c72b0"/>
     <use xlink:href="#md3f01be713" x="213.598656" y="288.200537" style="fill: #4c72b0; stroke: #4c72b0"/>
     <use xlink:href="#md3f01be713" x="597.996721" y="132.031904" style="fill: #4c72b0; stroke: #4c72b0"/>
     <use xlink:href="#md3f01be713" x="550.256584" y="182.597082" style="fill: #4c72b0; stroke: #4c72b0"/>
     <use xlink:href="#md3f01be713" x="230.755786" y="145.028251" style="fill: #4c72b0; stroke: #4c72b0"/>
     <use xlink:href="#md3f01be713" x="249.331951" y="267.77072" style="fill: #4c72b0; stroke: #4c72b0"/>
     <use xlink:href="#md3f01be713" x="275.946763" y="323.562152" style="fill: #4c72b0; stroke: #4c72b0"/>
     <use xlink:href="#md3f01be713" x="307.544767" y="117.150575" style="fill: #4c72b0; stroke: #4c72b0"/>
     <use xlink:href="#md3f01be713" x="599.899375" y="287.984917" style="fill: #4c72b0; stroke: #4c72b0"/>
     <use xlink:href="#md3f01be713" x="219.307201" y="261.708308" style="fill: #4c72b0; stroke: #4c72b0"/>
     <use xlink:href="#md3f01be713" x="529.595862" y="205.687204" style="fill: #4c72b0; stroke: #4c72b0"/>
     <use xlink:href="#md3f01be713" x="101.149491" y="222.630568" style="fill: #4c72b0; stroke: #4c72b0"/>
     <use xlink:href="#md3f01be713" x="87.469154" y="485.388222" style="fill: #4c72b0; stroke: #4c72b0"/>
     <use xlink:href="#md3f01be713" x="418.923508" y="258.324168" style="fill: #4c72b0; stroke: #4c72b0"/>
     <use xlink:href="#md3f01be713" x="102.846478" y="92.636309" style="fill: #4c72b0; stroke: #4c72b0"/>
     <use xlink:href="#md3f01be713" x="385.404751" y="395.967671" style="fill: #4c72b0; stroke: #4c72b0"/>
     <use xlink:href="#md3f01be713" x="588.258718" y="476.009103" style="fill: #4c72b0; stroke: #4c72b0"/>
     <use xlink:href="#md3f01be713" x="293.953406" y="529.082125" style="fill: #4c72b0; stroke: #4c72b0"/>
     <use xlink:href="#md3f01be713" x="280.225649" y="63.935856" style="fill: #4c72b0; stroke: #4c72b0"/>
     <use xlink:href="#md3f01be713" x="126.488843" y="157.961456" style="fill: #4c72b0; stroke: #4c72b0"/>
     <use xlink:href="#md3f01be713" x="84.343362" y="441.820787" style="fill: #4c72b0; stroke: #4c72b0"/>
     <use xlink:href="#md3f01be713" x="130.214615" y="113.507198" style="fill: #4c72b0; stroke: #4c72b0"/>
    </g>
   </g>
   <g id="Quiver_1">
    <path d="M 79.406696 40.681703 
L 78.772465 40.402417 
L 78.848123 41.950163 
L 73.343679 37.25461 
L 80.523841 38.144782 
L 79.331038 39.133956 
L 79.965268 39.413242 
L 79.406696 40.681703 
" clip-path="url(#pefbd2dfaaf)" style="fill: #4b0082"/>
    <path d="M 193.598197 292.515589 
L 192.948236 292.275172 
L 193.117364 293.81551 
L 187.339007 289.461463 
L 194.559863 289.915746 
L 193.429069 290.975251 
L 194.07903 291.215667 
L 193.598197 292.515589 
" clip-path="url(#pefbd2dfaaf)" style="fill: #4b0082"/>
    <path d="M 491.187571 232.450095 
L 490.62134 232.849635 
L 491.98665 233.582555 
L 485.125728 235.879264 
L 489.589411 230.185174 
L 489.822261 231.717174 
L 490.388491 231.317634 
L 491.187571 232.450095 
" clip-path="url(#pefbd2dfaaf)" style="fill: #4b0082"/>
    <path d="M 199.486308 482.118135 
L 200.16651 482.250701 
L 199.751441 480.75773 
L 206.155764 484.124001 
L 198.956042 484.838944 
L 199.901377 483.611106 
L 199.221175 483.478539 
L 199.486308 482.118135 
" clip-path="url(#pefbd2dfaaf)" style="fill: #4b0082"/>
    <path d="M 401.175391 109.962537 
L 401.863542 110.044375 
L 401.339067 108.586236 
L 407.975062 111.469065 
L 400.84804 112.715141 
L 401.699866 111.420677 
L 401.011716 111.338839 
L 401.175391 109.962537 
" clip-path="url(#pefbd2dfaaf)" style="fill: #4b0082"/>
    <path d="M 152.856414 530.50332 
L 153.305676 529.975672 
L 151.801118 529.604796 
L 157.876685 525.676103 
L 154.967006 532.300369 
L 154.360972 530.874197 
L 153.91171 531.401845 
L 152.856414 530.50332 
" clip-path="url(#pefbd2dfaaf)" style="fill: #4b0082"/>
    <path d="M 376.674138 358.127461 
L 377.364345 358.065308 
L 376.549831 356.747047 
L 383.638362 358.196135 
L 376.922751 360.888289 
L 377.488651 359.445722 
L 376.798444 359.507875 
L 376.674138 358.127461 
" clip-path="url(#pefbd2dfaaf)" style="fill: #4b0082"/>
    <path d="M 65.552812 322.170287 
L 64.937946 322.489957 
L 66.192151 323.400019 
L 59.084481 324.752118 
L 64.274133 319.710822 
L 64.298606 321.260224 
L 64.913472 320.940555 
L 65.552812 322.170287 
" clip-path="url(#pefbd2dfaaf)" style="fill: #4b0082"/>
    <path d="M 524.038078 216.49211 
L 524.583994 216.065233 
L 523.184324 215.400277 
L 529.924122 212.769257 
L 525.745585 218.675777 
L 525.437748 217.157067 
L 524.891832 217.583944 
L 524.038078 216.49211 
" clip-path="url(#pefbd2dfaaf)" style="fill: #4b0082"/>
    <path d="M 338.806166 366.216797 
L 339.498793 366.239512 
L 338.851596 364.831541 
L 345.709727 367.136575 
L 338.715305 368.987307 
L 339.453363 367.624767 
L 338.760736 367.602052 
L 338.806166 366.216797 
" clip-path="url(#pefbd2dfaaf)" style="fill: #4b0082"/>
    <path d="M 115.317971 137.603971 
L 114.688858 137.894601 
L 115.899231 138.862197 
L 108.73621 139.881157 
L 114.155451 135.087519 
L 114.107598 136.636375 
L 114.736711 136.345745 
L 115.317971 137.603971 
" clip-path="url(#pefbd2dfaaf)" style="fill: #4b0082"/>
    <path d="M 94.295552 43.196913 
L 94.518193 43.853175 
L 95.608076 42.751631 
L 95.8657 49.982175 
L 91.670504 44.087477 
L 93.205669 44.298457 
L 92.983028 43.642195 
L 94.295552 43.196913 
" clip-path="url(#pefbd2dfaaf)" style="fill: #4b0082"/>
    <path d="M 332.08717 142.42968 
L 332.736255 142.67245 
L 332.57271 141.13151 
L 338.335252 145.506466 
L 331.116089 145.026021 
L 332.250715 143.970621 
L 331.601629 143.727851 
L 332.08717 142.42968 
" clip-path="url(#pefbd2dfaaf)" style="fill: #4b0082"/>
    <path d="M 131.320189 280.581865 
L 130.773744 280.155665 
L 130.467791 281.674756 
L 126.28193 275.773425 
L 133.024987 278.396081 
L 131.626142 279.062774 
L 132.172588 279.488973 
L 131.320189 280.581865 
" clip-path="url(#pefbd2dfaaf)" style="fill: #4b0082"/>
    <path d="M 345.868081 205.881097 
L 346.041143 206.55214 
L 347.210167 205.534973 
L 346.927659 212.764588 
L 343.18391 206.573345 
L 344.699058 206.898264 
L 344.525996 206.227221 
L 345.868081 205.881097 
" clip-path="url(#pefbd2dfaaf)" style="fill: #4b0082"/>
    <path d="M 231.137126 207.221729 
L 230.776463 207.813481 
L 232.320631 207.943055 
L 226.938742 212.778591 
L 228.770116 205.779076 
L 229.592958 207.092155 
L 229.953621 206.500403 
L 231.137126 207.221729 
" clip-path="url(#pefbd2dfaaf)" style="fill: #4b0082"/>
    <path d="M 336.65517 352.821446 
L 337.163149 352.350058 
L 335.712393 351.80549 
L 342.206341 348.615539 
L 338.540725 354.853359 
L 338.105926 353.366014 
L 337.597947 353.837403 
L 336.65517 352.821446 
" clip-path="url(#pefbd2dfaaf)" style="fill: #4b0082"/>
    <path d="M 76.660282 151.950588 
L 77.305764 151.698393 
L 76.155894 150.659623 
L 83.367297 150.074129 
L 77.669058 154.532516 
L 77.810152 152.989358 
L 77.16467 153.241552 
L 76.660282 151.950588 
" clip-path="url(#pefbd2dfaaf)" style="fill: #4b0082"/>
    <path d="M 297.542429 96.253378 
L 297.297305 95.605178 
L 296.246028 96.743625 
L 295.739394 89.526253 
L 300.135229 95.272884 
L 298.593706 95.114931 
L 298.838829 95.763131 
L 297.542429 96.253378 
" clip-path="url(#pefbd2dfaaf)" style="fill: #4b0082"/>
    <path d="M 401.043532 303.613323 
L 401.629518 303.243364 
L 400.303614 302.441351 
L 407.273349 300.499721 
L 402.523367 305.957267 
L 402.369435 304.415336 
L 401.783449 304.785295 
L 401.043532 303.613323 
" clip-path="url(#pefbd2dfaaf)" style="fill: #4b0082"/>
    <path d="M 161.270768 226.419543 
L 161.46406 227.08504 
L 162.601763 226.032959 
L 162.53819 233.267811 
L 158.608778 227.19271 
L 160.133065 227.471624 
L 159.939773 226.806127 
L 161.270768 226.419543 
" clip-path="url(#pefbd2dfaaf)" style="fill: #4b0082"/>
    <path d="M 232.422449 176.748186 
L 232.050654 177.333009 
L 233.592094 177.491776 
L 228.119678 182.22462 
L 230.083157 175.261007 
L 230.881008 176.58942 
L 231.252803 176.004597 
L 232.422449 176.748186 
" clip-path="url(#pefbd2dfaaf)" style="fill: #4b0082"/>
    <path d="M 304.596948 199.295287 
L 304.181848 199.850212 
L 305.706797 200.125486 
L 299.891029 204.429435 
L 302.377249 197.63489 
L 303.071999 199.020013 
L 303.487098 198.465088 
L 304.596948 199.295287 
" clip-path="url(#pefbd2dfaaf)" style="fill: #4b0082"/>
    <path d="M 310.636726 65.923355 
L 310.108689 66.37216 
L 311.534336 66.979428 
L 304.907552 69.88337 
L 308.841505 63.811207 
L 309.211079 65.316086 
L 309.739115 64.867281 
L 310.636726 65.923355 
" clip-path="url(#pefbd2dfaaf)" style="fill: #4b0082"/>
    <path d="M 276.152705 256.447691 
L 275.560719 256.087411 
L 275.432146 257.631663 
L 270.593125 252.252909 
L 277.593823 254.079747 
L 276.281278 254.903439 
L 276.873264 255.263719 
L 276.152705 256.447691 
" clip-path="url(#pefbd2dfaaf)" style="fill: #4b0082"/>
    <path d="M 489.330952 444.621179 
L 489.170846 445.29543 
L 490.679455 444.941391 
L 487.055641 451.203588 
L 486.633946 443.980755 
L 487.822343 444.975219 
L 487.982449 444.300967 
L 489.330952 444.621179 
" clip-path="url(#pefbd2dfaaf)" style="fill: #4b0082"/>
    <path d="M 342.724799 204.281407 
L 343.132454 204.841824 
L 343.845632 203.466098 
L 346.240932 210.293226 
L 340.483134 205.912027 
L 342.011621 205.657134 
L 341.603966 205.096717 
L 342.724799 204.281407 
" clip-path="url(#pefbd2dfaaf)" style="fill: #4b0082"/>
    <path d="M 164.450799 420.53574 
L 163.962593 421.027577 
L 165.434474 421.512151 
L 159.076905 424.965911 
L 162.483448 418.582917 
L 162.978918 420.051166 
L 163.467123 419.559328 
L 164.450799 420.53574 
" clip-path="url(#pefbd2dfaaf)" style="fill: #4b0082"/>
    <path d="M 65.728382 257.41405 
L 65.884558 258.089222 
L 67.078727 257.101697 
L 66.614975 264.321951 
L 63.027692 258.038756 
L 64.534213 258.401575 
L 64.378037 257.726403 
L 65.728382 257.41405 
" clip-path="url(#pefbd2dfaaf)" style="fill: #4b0082"/>
    <path d="M 578.26059 9.720256 
L 578.944614 9.831435 
L 578.482949 8.352209 
L 584.989645 11.516074 
L 577.815872 12.456349 
L 578.722255 11.199482 
L 578.038231 11.088302 
L 578.26059 9.720256 
" clip-path="url(#pefbd2dfaaf)" style="fill: #4b0082"/>
    <path d="M 401.737061 66.040113 
L 401.915254 65.370415 
L 400.397664 65.683728 
L 404.188688 59.521319 
L 404.415856 66.752885 
L 403.254651 65.7268 
L 403.076458 66.396499 
L 401.737061 66.040113 
" clip-path="url(#pefbd2dfaaf)" style="fill: #4b0082"/>
    <path d="M 426.116272 386.852628 
L 425.85053 387.492651 
L 427.396319 387.384113 
L 422.818823 392.987119 
L 423.556179 385.789657 
L 424.570483 386.961166 
L 424.836226 386.321143 
L 426.116272 386.852628 
" clip-path="url(#pefbd2dfaaf)" style="fill: #4b0082"/>
    <path d="M 147.916682 264.30129 
L 147.644572 263.663948 
L 146.641998 264.845511 
L 145.832919 257.655759 
L 150.466051 263.212848 
L 148.919256 263.119727 
L 149.191366 263.757069 
L 147.916682 264.30129 
" clip-path="url(#pefbd2dfaaf)" style="fill: #4b0082"/>
    <path d="M 328.411843 375.447133 
L 328.885723 375.952789 
L 329.423154 374.499374 
L 332.644983 380.977565 
L 326.389222 377.342651 
L 327.874412 376.900548 
L 327.400533 376.394892 
L 328.411843 375.447133 
" clip-path="url(#pefbd2dfaaf)" style="fill: #4b0082"/>
    <path d="M 65.394829 546.191312 
L 64.789515 546.52872 
L 66.069644 547.40194 
L 59.004282 548.960072 
L 64.0452 543.770056 
L 64.1147 545.318092 
L 64.720015 544.980684 
L 65.394829 546.191312 
" clip-path="url(#pefbd2dfaaf)" style="fill: #4b0082"/>
    <path d="M 307.863249 372.308099 
L 307.415362 372.836915 
L 308.920881 373.203873 
L 302.855564 377.148372 
L 305.747985 370.516552 
L 306.35773 371.941141 
L 306.805617 371.412325 
L 307.863249 372.308099 
" clip-path="url(#pefbd2dfaaf)" style="fill: #4b0082"/>
    <path d="M 157.789489 183.945437 
L 157.448538 183.342112 
L 156.582837 184.627338 
L 154.983308 177.571231 
L 160.202791 182.581635 
L 158.655189 182.66021 
L 158.99614 183.263536 
L 157.789489 183.945437 
" clip-path="url(#pefbd2dfaaf)" style="fill: #4b0082"/>
    <path d="M 83.527437 434.076176 
L 83.583555 433.385452 
L 82.145989 433.96394 
L 84.779342 427.225054 
L 86.290333 434.300648 
L 84.965003 433.497688 
L 84.908885 434.188412 
L 83.527437 434.076176 
" clip-path="url(#pefbd2dfaaf)" style="fill: #4b0082"/>
    <path d="M 603.500297 28.606146 
L 603.430498 29.295622 
L 604.879249 28.745744 
L 602.11283 35.431106 
L 600.742393 28.326949 
L 602.051546 29.156023 
L 602.121345 28.466547 
L 603.500297 28.606146 
" clip-path="url(#pefbd2dfaaf)" style="fill: #4b0082"/>
    <path d="M 114.02071 247.76288 
L 113.331185 247.832193 
L 114.159335 249.14193 
L 107.056148 247.76648 
L 113.74346 245.00478 
L 113.19256 246.453143 
L 113.882085 246.38383 
L 114.02071 247.76288 
" clip-path="url(#pefbd2dfaaf)" style="fill: #4b0082"/>
    <path d="M 240.315509 402.083173 
L 239.793519 402.538998 
L 241.227157 403.127153 
L 234.639788 406.119427 
L 238.492211 399.995215 
L 238.88187 401.495019 
L 239.40386 401.039194 
L 240.315509 402.083173 
" clip-path="url(#pefbd2dfaaf)" style="fill: #4b0082"/>
    <path d="M 384.407915 257.636967 
L 384.737302 258.246682 
L 385.627346 256.978193 
L 387.09207 264.063509 
L 381.969053 258.954515 
L 383.517871 258.905456 
L 383.188484 258.295741 
L 384.407915 257.636967 
" clip-path="url(#pefbd2dfaaf)" style="fill: #4b0082"/>
    <path d="M 311.683014 274.799449 
L 311.28276 275.365174 
L 312.814465 275.599958 
L 307.114744 280.056449 
L 309.420112 273.198431 
L 310.151309 274.564666 
L 310.551563 273.99894 
L 311.683014 274.799449 
" clip-path="url(#pefbd2dfaaf)" style="fill: #4b0082"/>
    <path d="M 399.740591 518.192272 
L 400.226747 518.686135 
L 400.728316 517.219959 
L 404.108295 523.617058 
L 397.765139 520.136899 
L 399.239022 519.658449 
L 398.752865 519.164586 
L 399.740591 518.192272 
" clip-path="url(#pefbd2dfaaf)" style="fill: #4b0082"/>
    <path d="M 264.320107 469.467963 
L 264.593674 468.831245 
L 263.046671 468.920828 
L 267.692499 463.374351 
L 266.866979 470.562233 
L 265.86711 469.37838 
L 265.593543 470.015098 
L 264.320107 469.467963 
" clip-path="url(#pefbd2dfaaf)" style="fill: #4b0082"/>
    <path d="M 361.869783 291.513234 
L 361.864349 292.206212 
L 363.25574 291.524102 
L 361.122464 298.437586 
L 359.097868 291.491498 
L 360.478391 292.195344 
L 360.483825 291.502366 
L 361.869783 291.513234 
" clip-path="url(#pefbd2dfaaf)" style="fill: #4b0082"/>
    <path d="M 580.855557 386.930675 
L 580.953208 386.24459 
L 579.483386 386.735374 
L 582.518148 380.167472 
L 583.599899 387.321277 
L 582.325378 386.439891 
L 582.227728 387.125976 
L 580.855557 386.930675 
" clip-path="url(#pefbd2dfaaf)" style="fill: #4b0082"/>
    <path d="M 557.383527 228.998928 
L 556.69097 229.023687 
L 557.433046 230.384043 
L 550.433192 228.553963 
L 557.28449 226.228698 
L 556.641451 227.638572 
L 557.334009 227.613813 
L 557.383527 228.998928 
" clip-path="url(#pefbd2dfaaf)" style="fill: #4b0082"/>
    <path d="M 344.812392 134.456964 
L 344.359709 134.98168 
L 345.861824 135.362331 
L 339.760842 139.251438 
L 342.713529 132.64623 
L 343.310277 134.076313 
L 343.762961 133.551597 
L 344.812392 134.456964 
" clip-path="url(#pefbd2dfaaf)" style="fill: #4b0082"/>
    <path d="M 522.551459 380.676036 
L 522.743561 380.010194 
L 521.219774 380.291832 
L 525.138322 374.209716 
L 525.214827 381.444444 
L 524.075245 380.394398 
L 523.883143 381.06024 
L 522.551459 380.676036 
" clip-path="url(#pefbd2dfaaf)" style="fill: #4b0082"/>
    <path d="M 456.513499 548.840795 
L 455.97421 548.405574 
L 455.643058 549.919372 
L 451.555833 543.949304 
L 458.25438 546.68364 
L 456.844651 547.326997 
L 457.383939 547.762217 
L 456.513499 548.840795 
" clip-path="url(#pefbd2dfaaf)" style="fill: #4b0082"/>
    <path d="M 559.324303 369.018319 
L 559.091406 369.671012 
L 560.629689 369.484114 
L 556.342639 375.312349 
L 556.713532 368.086731 
L 557.786021 369.205218 
L 558.018918 368.552525 
L 559.324303 369.018319 
" clip-path="url(#pefbd2dfaaf)" style="fill: #4b0082"/>
    <path d="M 358.569679 444.623455 
L 359.238136 444.440658 
L 358.204085 443.286542 
L 365.437042 443.463944 
L 359.300866 447.297282 
L 359.603729 445.777572 
L 358.935273 445.960368 
L 358.569679 444.623455 
" clip-path="url(#pefbd2dfaaf)" style="fill: #4b0082"/>
    <path d="M 89.785864 175.007584 
L 89.548252 174.356593 
L 88.483882 175.482808 
L 88.060733 168.26006 
L 92.389829 174.057135 
L 90.850234 173.881368 
L 91.087846 174.532359 
L 89.785864 175.007584 
" clip-path="url(#pefbd2dfaaf)" style="fill: #4b0082"/>
    <path d="M 553.439873 510.325619 
L 554.131531 510.282516 
L 553.353666 508.942303 
L 560.399557 510.586245 
L 553.612286 513.092251 
L 554.217737 511.665832 
L 553.526079 511.708935 
L 553.439873 510.325619 
" clip-path="url(#pefbd2dfaaf)" style="fill: #4b0082"/>
    <path d="M 363.735391 279.803473 
L 363.386877 280.402462 
L 364.933368 280.500502 
L 359.651261 285.444842 
L 361.339438 278.409417 
L 362.1889 279.705433 
L 362.537415 279.106445 
L 363.735391 279.803473 
" clip-path="url(#pefbd2dfaaf)" style="fill: #4b0082"/>
    <path d="M 409.900034 8.689782 
L 410.066651 9.362454 
L 411.245378 8.356549 
L 410.893528 15.583121 
L 407.209345 9.356248 
L 408.721306 9.695687 
L 408.55469 9.023015 
L 409.900034 8.689782 
" clip-path="url(#pefbd2dfaaf)" style="fill: #4b0082"/>
    <path d="M 458.248048 312.465994 
L 457.666962 312.088385 
L 457.492829 313.628165 
L 452.814804 308.108815 
L 459.758485 310.141653 
L 458.422181 310.926214 
L 459.003267 311.303824 
L 458.248048 312.465994 
" clip-path="url(#pefbd2dfaaf)" style="fill: #4b0082"/>
    <path d="M 354.986359 81.608683 
L 355.624838 81.878115 
L 355.525222 80.331725 
L 361.10172 84.941478 
L 353.908633 84.1626 
L 355.085975 83.155073 
L 354.447496 82.885642 
L 354.986359 81.608683 
" clip-path="url(#pefbd2dfaaf)" style="fill: #4b0082"/>
    <path d="M 459.299948 397.292956 
L 458.748189 397.712253 
L 460.138543 398.396475 
L 453.363055 400.93417 
L 457.622759 395.085917 
L 457.909594 396.608734 
L 458.461354 396.189437 
L 459.299948 397.292956 
" clip-path="url(#pefbd2dfaaf)" style="fill: #4b0082"/>
    <path d="M 295.109812 292.903737 
L 295.752394 293.163232 
L 295.628803 291.618573 
L 301.276135 296.141269 
L 294.071832 295.474064 
L 295.233404 294.448395 
L 294.590822 294.1889 
L 295.109812 292.903737 
" clip-path="url(#pefbd2dfaaf)" style="fill: #4b0082"/>
    <path d="M 402.212609 559.313936 
L 402.722353 559.783414 
L 403.151566 558.294448 
L 406.840572 564.518463 
L 400.334696 561.352912 
L 401.783397 560.802902 
L 401.273653 560.333424 
L 402.212609 559.313936 
" clip-path="url(#pefbd2dfaaf)" style="fill: #4b0082"/>
    <path d="M 210.268153 448.367327 
L 210.400163 449.047637 
L 211.628773 448.103306 
L 210.907949 455.302441 
L 207.546911 448.89537 
L 209.039542 449.311659 
L 208.907532 448.631348 
L 210.268153 448.367327 
" clip-path="url(#pefbd2dfaaf)" style="fill: #4b0082"/>
    <path d="M 511.109995 97.089921 
L 511.251451 97.76833 
L 512.466814 96.80701 
L 511.846137 104.015469 
L 508.396358 97.655741 
L 509.894632 98.05124 
L 509.753177 97.372831 
L 511.109995 97.089921 
" clip-path="url(#pefbd2dfaaf)" style="fill: #4b0082"/>
    <path d="M 341.551704 121.752106 
L 341.111573 122.287395 
L 342.622282 122.632366 
L 336.615112 126.664866 
L 339.410548 119.991585 
L 340.040995 121.407134 
L 340.481126 120.871845 
L 341.551704 121.752106 
" clip-path="url(#pefbd2dfaaf)" style="fill: #4b0082"/>
    <path d="M 364.513527 366.323005 
L 365.160212 366.572098 
L 365.011714 365.029635 
L 370.731283 369.460624 
L 363.517153 368.909744 
L 364.662025 367.865468 
L 364.01534 367.616374 
L 364.513527 366.323005 
" clip-path="url(#pefbd2dfaaf)" style="fill: #4b0082"/>
    <path d="M 322.626706 443.615272 
L 322.947191 443.000831 
L 321.397823 442.974303 
L 326.445993 437.79134 
L 325.084473 444.89721 
L 324.176074 443.6418 
L 323.85559 444.256241 
L 322.626706 443.615272 
" clip-path="url(#pefbd2dfaaf)" style="fill: #4b0082"/>
    <path d="M 525.970013 378.887994 
L 526.655146 378.783875 
L 525.761773 377.517727 
L 532.925469 378.531931 
L 526.386491 381.628529 
L 526.863386 380.154142 
L 526.178252 380.258262 
L 525.970013 378.887994 
" clip-path="url(#pefbd2dfaaf)" style="fill: #4b0082"/>
    <path d="M 467.257742 523.854318 
L 467.726961 523.344335 
L 466.237777 522.915879 
L 472.459916 519.22371 
L 469.297673 525.731194 
L 468.746926 524.282773 
L 468.277707 524.792756 
L 467.257742 523.854318 
" clip-path="url(#pefbd2dfaaf)" style="fill: #4b0082"/>
    <path d="M 282.693447 124.218449 
L 282.005893 124.13174 
L 282.520029 125.593557 
L 275.904615 122.663808 
L 283.040282 121.468233 
L 282.17931 122.756632 
L 282.866864 122.843341 
L 282.693447 124.218449 
" clip-path="url(#pefbd2dfaaf)" style="fill: #4b0082"/>
    <path d="M 216.999968 73.60694 
L 216.738981 72.964963 
L 215.716014 74.128914 
L 215.032075 66.926181 
L 219.567877 72.562992 
L 218.022936 72.442989 
L 218.283923 73.084966 
L 216.999968 73.60694 
" clip-path="url(#pefbd2dfaaf)" style="fill: #4b0082"/>
    <path d="M 408.803581 289.465709 
L 408.390188 288.909513 
L 407.691188 290.292496 
L 405.225841 283.49035 
L 411.028368 287.812135 
L 409.502581 288.082725 
L 409.915974 288.638922 
L 408.803581 289.465709 
" clip-path="url(#pefbd2dfaaf)" style="fill: #4b0082"/>
    <path d="M 435.872678 158.285779 
L 435.1797 158.291327 
L 435.883775 159.671734 
L 428.937352 157.648287 
L 435.850484 155.513868 
L 435.168603 156.905372 
L 435.861581 156.899823 
L 435.872678 158.285779 
" clip-path="url(#pefbd2dfaaf)" style="fill: #4b0082"/>
    <path d="M 503.327486 380.296955 
L 503.0228 380.919382 
L 504.57234 380.906327 
L 499.6582 386.21654 
L 500.837778 379.078212 
L 501.777946 380.310011 
L 502.082632 379.687584 
L 503.327486 380.296955 
" clip-path="url(#pefbd2dfaaf)" style="fill: #4b0082"/>
    <path d="M 360.577737 69.835035 
L 360.23073 70.434898 
L 361.777462 70.52905 
L 356.507799 75.48665 
L 358.178288 68.447005 
L 359.031005 69.740882 
L 359.378013 69.14102 
L 360.577737 69.835035 
" clip-path="url(#pefbd2dfaaf)" style="fill: #4b0082"/>
    <path d="M 472.363009 463.439005 
L 471.767562 463.084474 
L 471.653947 464.629898 
L 466.763072 459.29825 
L 473.781132 461.057218 
L 472.476624 461.89358 
L 473.072071 462.248111 
L 472.363009 463.439005 
" clip-path="url(#pefbd2dfaaf)" style="fill: #4b0082"/>
    <path d="M 190.268804 339.628254 
L 190.436832 338.955933 
L 188.924162 339.2922 
L 192.621396 333.073069 
L 192.95809 340.300363 
L 191.781474 339.291987 
L 191.613447 339.964309 
L 190.268804 339.628254 
" clip-path="url(#pefbd2dfaaf)" style="fill: #4b0082"/>
    <path d="M 318.083328 355.190385 
L 318.70743 355.491624 
L 318.685806 353.94218 
L 324.023114 358.826878 
L 316.878371 357.686795 
L 318.104952 356.739829 
L 317.48085 356.43859 
L 318.083328 355.190385 
" clip-path="url(#pefbd2dfaaf)" style="fill: #4b0082"/>
    <path d="M 219.8528 353.314478 
L 220.447013 352.957883 
L 219.13961 352.126053 
L 226.151522 350.342738 
L 221.279181 355.691329 
L 221.160203 354.146308 
L 220.565991 354.502904 
L 219.8528 353.314478 
" clip-path="url(#pefbd2dfaaf)" style="fill: #4b0082"/>
    <path d="M 214.180045 287.823396 
L 214.557186 288.404786 
L 215.342824 287.069114 
L 217.370065 294.014432 
L 211.854488 289.33196 
L 213.394407 289.159068 
L 213.017266 288.577678 
L 214.180045 287.823396 
" clip-path="url(#pefbd2dfaaf)" style="fill: #4b0082"/>
    <path d="M 597.79403 131.369208 
L 598.456726 131.166517 
L 597.388648 130.043817 
L 604.623676 130.004994 
L 598.604794 134.01999 
L 598.862108 132.491908 
L 598.199412 132.694599 
L 597.79403 131.369208 
" clip-path="url(#pefbd2dfaaf)" style="fill: #4b0082"/>
    <path d="M 550.757875 182.118588 
L 551.236369 182.61988 
L 551.760458 181.161602 
L 555.041518 187.609996 
L 548.75271 184.032562 
L 550.233786 183.576867 
L 549.755292 183.075575 
L 550.757875 182.118588 
" clip-path="url(#pefbd2dfaaf)" style="fill: #4b0082"/>
    <path d="M 231.446422 144.971058 
L 231.503615 145.661694 
L 232.827694 144.856673 
L 231.327713 151.934609 
L 228.683879 145.199829 
L 230.122343 145.776079 
L 230.06515 145.085444 
L 231.446422 144.971058 
" clip-path="url(#pefbd2dfaaf)" style="fill: #4b0082"/>
    <path d="M 249.593116 267.128815 
L 250.235021 267.38998 
L 250.115447 265.845006 
L 255.750997 270.382373 
L 248.548454 269.696434 
L 249.71269 268.67379 
L 249.070785 268.412624 
L 249.593116 267.128815 
" clip-path="url(#pefbd2dfaaf)" style="fill: #4b0082"/>
    <path d="M 276.354451 323.001759 
L 276.914843 323.409447 
L 277.169826 321.880975 
L 281.550686 327.63903 
L 274.723699 325.243329 
L 276.099467 324.530232 
L 275.539075 324.122544 
L 276.354451 323.001759 
" clip-path="url(#pefbd2dfaaf)" style="fill: #4b0082"/>
    <path d="M 307.92943 117.727015 
L 307.35299 118.111678 
L 308.698756 118.879895 
L 301.780365 120.997205 
L 306.390778 115.421254 
L 306.583664 116.958797 
L 307.160104 116.574134 
L 307.92943 117.727015 
" clip-path="url(#pefbd2dfaaf)" style="fill: #4b0082"/>
    <path d="M 600.475601 287.599934 
L 600.860585 288.17616 
L 601.628054 286.829967 
L 603.749209 293.74718 
L 598.170696 289.139867 
L 599.708132 288.946127 
L 599.323149 288.369901 
L 600.475601 287.599934 
" clip-path="url(#pefbd2dfaaf)" style="fill: #4b0082"/>
    <path d="M 218.614351 261.693917 
L 218.628742 261.001066 
L 217.22865 261.665133 
L 219.451118 254.779804 
L 221.385752 261.751483 
L 220.014443 261.02985 
L 220.000051 261.7227 
L 218.614351 261.693917 
" clip-path="url(#pefbd2dfaaf)" style="fill: #4b0082"/>
    <path d="M 530.164335 205.290862 
L 530.560677 205.859335 
L 531.301281 204.498177 
L 533.559285 211.371936 
L 527.890442 206.876231 
L 529.423731 206.65202 
L 529.027388 206.083546 
L 530.164335 205.290862 
" clip-path="url(#pefbd2dfaaf)" style="fill: #4b0082"/>
    <path d="M 101.680977 222.185851 
L 102.125693 222.717337 
L 102.743947 221.296419 
L 105.596653 227.94542 
L 99.555036 223.964716 
L 101.062722 223.606769 
L 100.618006 223.075284 
L 101.680977 222.185851 
" clip-path="url(#pefbd2dfaaf)" style="fill: #4b0082"/>
    <path d="M 87.756427 486.018874 
L 87.125774 486.306148 
L 88.330975 487.28018 
L 81.162626 488.260958 
L 86.607333 483.496263 
L 86.551227 485.044843 
L 87.18188 484.757569 
L 87.756427 486.018874 
" clip-path="url(#pefbd2dfaaf)" style="fill: #4b0082"/>
    <path d="M 419.616136 258.30148 
L 419.638825 258.994108 
L 421.001393 258.256103 
L 419.150392 265.250452 
L 416.845623 258.392234 
L 418.253568 259.039485 
L 418.230879 258.346857 
L 419.616136 258.30148 
" clip-path="url(#pefbd2dfaaf)" style="fill: #4b0082"/>
    <path d="M 103.5202 92.473987 
L 103.682522 93.147708 
L 104.867643 92.149342 
L 104.4697 99.373523 
L 100.825314 93.123275 
L 102.335079 93.472352 
L 102.172757 92.798631 
L 103.5202 92.473987 
" clip-path="url(#pefbd2dfaaf)" style="fill: #4b0082"/>
    <path d="M 386.097711 395.960253 
L 386.105129 396.653213 
L 387.483631 395.945417 
L 385.478928 402.897272 
L 383.32587 395.989924 
L 384.719208 396.668048 
L 384.711791 395.975088 
L 386.097711 395.960253 
" clip-path="url(#pefbd2dfaaf)" style="fill: #4b0082"/>
    <path d="M 588.595354 475.40336 
L 589.201097 475.739997 
L 589.268628 474.191874 
L 594.316148 479.37547 
L 587.248808 477.826332 
L 588.527824 476.951483 
L 587.922081 476.614846 
L 588.595354 475.40336 
" clip-path="url(#pefbd2dfaaf)" style="fill: #4b0082"/>
    <path d="M 293.260449 529.089823 
L 293.252751 528.396866 
L 291.874534 529.105219 
L 293.876427 522.152554 
L 296.032277 529.059032 
L 294.638665 528.38147 
L 294.646363 529.074428 
L 293.260449 529.089823 
" clip-path="url(#pefbd2dfaaf)" style="fill: #4b0082"/>
    <path d="M 279.532705 63.944703 
L 279.523858 63.25176 
L 278.146818 63.962398 
L 280.137174 57.006421 
L 282.304479 63.909313 
L 280.909745 63.234065 
L 280.918592 63.927008 
L 279.532705 63.944703 
" clip-path="url(#pefbd2dfaaf)" style="fill: #4b0082"/>
    <path d="M 126.023801 157.447662 
L 126.537595 156.98262 
L 125.093716 156.420074 
L 131.626785 153.311031 
L 127.883971 159.502839 
L 127.46768 158.010208 
L 126.953886 158.47525 
L 126.023801 157.447662 
" clip-path="url(#pefbd2dfaaf)" style="fill: #4b0082"/>
    <path d="M 85.026429 441.70388 
L 85.143336 442.386948 
L 86.392565 441.470067 
L 85.512429 448.651466 
L 82.294158 442.171507 
L 83.7772 442.620762 
L 83.660294 441.937694 
L 85.026429 441.70388 
" clip-path="url(#pefbd2dfaaf)" style="fill: #4b0082"/>
    <path d="M 130.882385 113.321909 
L 131.067675 113.989679 
L 132.217925 112.95133 
L 132.067508 120.184899 
L 128.211305 114.063066 
L 129.732134 114.360258 
L 129.546845 113.692488 
L 130.882385 113.321909 
" clip-path="url(#pefbd2dfaaf)" style="fill: #4b0082"/>
   </g>
   <g id="patch_3">
    <path d="M 61.746875 561.6 
L 61.746875 7.2 
" style="fill: none; stroke: #ffffff; stroke-width: 1.25; stroke-linejoin: miter; stroke-linecap: square"/>
   </g>
   <g id="patch_4">
    <path d="M 616.146875 561.6 
L 616.146875 7.2 
" style="fill: none; stroke: #ffffff; stroke-width: 1.25; stroke-linejoin: miter; stroke-linecap: square"/>
   </g>
   <g id="patch_5">
    <path d="M 61.746875 561.6 
L 616.146875 561.6 
" style="fill: none; stroke: #ffffff; stroke-width: 1.25; stroke-linejoin: miter; stroke-linecap: square"/>
   </g>
   <g id="patch_6">
    <path d="M 61.746875 7.2 
L 616.146875 7.2 
" style="fill: none; stroke: #ffffff; stroke-width: 1.25; stroke-linejoin: miter; stroke-linecap: square"/>
   </g>
   <g id="legend_1">
    <g id="patch_7">
     <path d="M 74.346875 98.423437 
L 266.024375 98.423437 
Q 269.624375 98.423437 269.624375 94.823437 
L 269.624375 19.8 
Q 269.624375 16.2 266.024375 16.2 
L 74.346875 16.2 
Q 70.746875 16.2 70.746875 19.8 
L 70.746875 94.823437 
Q 70.746875 98.423437 74.346875 98.423437 
z
" style="fill: #eaeaf2; opacity: 0.8; stroke: #cccccc; stroke-linejoin: miter"/>
    </g>
    <g id="PathCollection_3">
     <g>
      <use xlink:href="#m36294fcbfe" x="95.946875" y="31.559063" style="fill: #55a868; stroke: #55a868"/>
     </g>
    </g>
    <g id="text_11">
     <!-- Grasses -->
     <g style="fill: #262626" transform="translate(128.346875 36.284063) scale(0.18 -0.18)">
      <defs>
       <path id="ArialMT-47" d="M 2638 1797 
L 2638 2334 
L 4578 2338 
L 4578 638 
Q 4131 281 3656 101 
Q 3181 -78 2681 -78 
Q 2006 -78 1454 211 
Q 903 500 622 1047 
Q 341 1594 341 2269 
Q 341 2938 620 3517 
Q 900 4097 1425 4378 
Q 1950 4659 2634 4659 
Q 3131 4659 3532 4498 
Q 3934 4338 4162 4050 
Q 4391 3763 4509 3300 
L 3963 3150 
Q 3859 3500 3706 3700 
Q 3553 3900 3268 4020 
Q 2984 4141 2638 4141 
Q 2222 4141 1919 4014 
Q 1616 3888 1430 3681 
Q 1244 3475 1141 3228 
Q 966 2803 966 2306 
Q 966 1694 1177 1281 
Q 1388 869 1791 669 
Q 2194 469 2647 469 
Q 3041 469 3416 620 
Q 3791 772 3984 944 
L 3984 1797 
L 2638 1797 
z
" transform="scale(0.015625)"/>
       <path id="ArialMT-72" d="M 416 0 
L 416 3319 
L 922 3319 
L 922 2816 
Q 1116 3169 1280 3281 
Q 1444 3394 1641 3394 
Q 1925 3394 2219 3213 
L 2025 2691 
Q 1819 2813 1613 2813 
Q 1428 2813 1281 2702 
Q 1134 2591 1072 2394 
Q 978 2094 978 1738 
L 978 0 
L 416 0 
z
" transform="scale(0.015625)"/>
       <path id="ArialMT-61" d="M 2588 409 
Q 2275 144 1986 34 
Q 1697 -75 1366 -75 
Q 819 -75 525 192 
Q 231 459 231 875 
Q 231 1119 342 1320 
Q 453 1522 633 1644 
Q 813 1766 1038 1828 
Q 1203 1872 1538 1913 
Q 2219 1994 2541 2106 
Q 2544 2222 2544 2253 
Q 2544 2597 2384 2738 
Q 2169 2928 1744 2928 
Q 1347 2928 1158 2789 
Q 969 2650 878 2297 
L 328 2372 
Q 403 2725 575 2942 
Q 747 3159 1072 3276 
Q 1397 3394 1825 3394 
Q 2250 3394 2515 3294 
Q 2781 3194 2906 3042 
Q 3031 2891 3081 2659 
Q 3109 2516 3109 2141 
L 3109 1391 
Q 3109 606 3145 398 
Q 3181 191 3288 0 
L 2700 0 
Q 2613 175 2588 409 
z
M 2541 1666 
Q 2234 1541 1622 1453 
Q 1275 1403 1131 1340 
Q 988 1278 909 1158 
Q 831 1038 831 891 
Q 831 666 1001 516 
Q 1172 366 1500 366 
Q 1825 366 2078 508 
Q 2331 650 2450 897 
Q 2541 1088 2541 1459 
L 2541 1666 
z
" transform="scale(0.015625)"/>
       <path id="ArialMT-73" d="M 197 991 
L 753 1078 
Q 800 744 1014 566 
Q 1228 388 1613 388 
Q 2000 388 2187 545 
Q 2375 703 2375 916 
Q 2375 1106 2209 1216 
Q 2094 1291 1634 1406 
Q 1016 1563 777 1677 
Q 538 1791 414 1992 
Q 291 2194 291 2438 
Q 291 2659 392 2848 
Q 494 3038 669 3163 
Q 800 3259 1026 3326 
Q 1253 3394 1513 3394 
Q 1903 3394 2198 3281 
Q 2494 3169 2634 2976 
Q 2775 2784 2828 2463 
L 2278 2388 
Q 2241 2644 2061 2787 
Q 1881 2931 1553 2931 
Q 1166 2931 1000 2803 
Q 834 2675 834 2503 
Q 834 2394 903 2306 
Q 972 2216 1119 2156 
Q 1203 2125 1616 2013 
Q 2213 1853 2448 1751 
Q 2684 1650 2818 1456 
Q 2953 1263 2953 975 
Q 2953 694 2789 445 
Q 2625 197 2315 61 
Q 2006 -75 1616 -75 
Q 969 -75 630 194 
Q 291 463 197 991 
z
" transform="scale(0.015625)"/>
       <path id="ArialMT-65" d="M 2694 1069 
L 3275 997 
Q 3138 488 2766 206 
Q 2394 -75 1816 -75 
Q 1088 -75 661 373 
Q 234 822 234 1631 
Q 234 2469 665 2931 
Q 1097 3394 1784 3394 
Q 2450 3394 2872 2941 
Q 3294 2488 3294 1666 
Q 3294 1616 3291 1516 
L 816 1516 
Q 847 969 1125 678 
Q 1403 388 1819 388 
Q 2128 388 2347 550 
Q 2566 713 2694 1069 
z
M 847 1978 
L 2700 1978 
Q 2663 2397 2488 2606 
Q 2219 2931 1791 2931 
Q 1403 2931 1139 2672 
Q 875 2413 847 1978 
z
" transform="scale(0.015625)"/>
      </defs>
      <use xlink:href="#ArialMT-47"/>
      <use xlink:href="#ArialMT-72" x="77.783203"/>
      <use xlink:href="#ArialMT-61" x="111.083984"/>
      <use xlink:href="#ArialMT-73" x="166.699219"/>
      <use xlink:href="#ArialMT-73" x="216.699219"/>
      <use xlink:href="#ArialMT-65" x="266.699219"/>
      <use xlink:href="#ArialMT-73" x="322.314453"/>
     </g>
    </g>
    <g id="PathCollection_4">
     <g>
      <use xlink:href="#md3f01be713" x="95.946875" y="57.24" style="fill: #4c72b0; stroke: #4c72b0"/>
     </g>
    </g>
    <g id="text_12">
     <!-- Sheep -->
     <g style="fill: #262626" transform="translate(128.346875 61.965) scale(0.18 -0.18)">
      <defs>
       <path id="ArialMT-53" d="M 288 1472 
L 859 1522 
Q 900 1178 1048 958 
Q 1197 738 1509 602 
Q 1822 466 2213 466 
Q 2559 466 2825 569 
Q 3091 672 3220 851 
Q 3350 1031 3350 1244 
Q 3350 1459 3225 1620 
Q 3100 1781 2813 1891 
Q 2628 1963 1997 2114 
Q 1366 2266 1113 2400 
Q 784 2572 623 2826 
Q 463 3081 463 3397 
Q 463 3744 659 4045 
Q 856 4347 1234 4503 
Q 1613 4659 2075 4659 
Q 2584 4659 2973 4495 
Q 3363 4331 3572 4012 
Q 3781 3694 3797 3291 
L 3216 3247 
Q 3169 3681 2898 3903 
Q 2628 4125 2100 4125 
Q 1550 4125 1298 3923 
Q 1047 3722 1047 3438 
Q 1047 3191 1225 3031 
Q 1400 2872 2139 2705 
Q 2878 2538 3153 2413 
Q 3553 2228 3743 1945 
Q 3934 1663 3934 1294 
Q 3934 928 3725 604 
Q 3516 281 3123 101 
Q 2731 -78 2241 -78 
Q 1619 -78 1198 103 
Q 778 284 539 648 
Q 300 1013 288 1472 
z
" transform="scale(0.015625)"/>
       <path id="ArialMT-68" d="M 422 0 
L 422 4581 
L 984 4581 
L 984 2938 
Q 1378 3394 1978 3394 
Q 2347 3394 2619 3248 
Q 2891 3103 3008 2847 
Q 3125 2591 3125 2103 
L 3125 0 
L 2563 0 
L 2563 2103 
Q 2563 2525 2380 2717 
Q 2197 2909 1863 2909 
Q 1613 2909 1392 2779 
Q 1172 2650 1078 2428 
Q 984 2206 984 1816 
L 984 0 
L 422 0 
z
" transform="scale(0.015625)"/>
       <path id="ArialMT-70" d="M 422 -1272 
L 422 3319 
L 934 3319 
L 934 2888 
Q 1116 3141 1344 3267 
Q 1572 3394 1897 3394 
Q 2322 3394 2647 3175 
Q 2972 2956 3137 2557 
Q 3303 2159 3303 1684 
Q 3303 1175 3120 767 
Q 2938 359 2589 142 
Q 2241 -75 1856 -75 
Q 1575 -75 1351 44 
Q 1128 163 984 344 
L 984 -1272 
L 422 -1272 
z
M 931 1641 
Q 931 1000 1190 694 
Q 1450 388 1819 388 
Q 2194 388 2461 705 
Q 2728 1022 2728 1688 
Q 2728 2322 2467 2637 
Q 2206 2953 1844 2953 
Q 1484 2953 1207 2617 
Q 931 2281 931 1641 
z
" transform="scale(0.015625)"/>
      </defs>
      <use xlink:href="#ArialMT-53"/>
      <use xlink:href="#ArialMT-68" x="66.699219"/>
      <use xlink:href="#ArialMT-65" x="122.314453"/>
      <use xlink:href="#ArialMT-65" x="177.929688"/>
      <use xlink:href="#ArialMT-70" x="233.544922"/>
     </g>
    </g>
    <g id="patch_8">
     <path d="M 77.946875 87.645938 
L 113.946875 87.645938 
L 113.946875 75.045938 
L 77.946875 75.045938 
L 77.946875 87.645938 
z
" style="fill: none; opacity: 0"/>
    </g>
    <g id="text_13">
     <!-- Sheep directions -->
     <g style="fill: #262626" transform="translate(128.346875 87.645938) scale(0.18 -0.18)">
      <defs>
       <path id="ArialMT-20" transform="scale(0.015625)"/>
       <path id="ArialMT-64" d="M 2575 0 
L 2575 419 
Q 2259 -75 1647 -75 
Q 1250 -75 917 144 
Q 584 363 401 755 
Q 219 1147 219 1656 
Q 219 2153 384 2558 
Q 550 2963 881 3178 
Q 1213 3394 1622 3394 
Q 1922 3394 2156 3267 
Q 2391 3141 2538 2938 
L 2538 4581 
L 3097 4581 
L 3097 0 
L 2575 0 
z
M 797 1656 
Q 797 1019 1065 703 
Q 1334 388 1700 388 
Q 2069 388 2326 689 
Q 2584 991 2584 1609 
Q 2584 2291 2321 2609 
Q 2059 2928 1675 2928 
Q 1300 2928 1048 2622 
Q 797 2316 797 1656 
z
" transform="scale(0.015625)"/>
       <path id="ArialMT-69" d="M 425 3934 
L 425 4581 
L 988 4581 
L 988 3934 
L 425 3934 
z
M 425 0 
L 425 3319 
L 988 3319 
L 988 0 
L 425 0 
z
" transform="scale(0.015625)"/>
       <path id="ArialMT-63" d="M 2588 1216 
L 3141 1144 
Q 3050 572 2676 248 
Q 2303 -75 1759 -75 
Q 1078 -75 664 370 
Q 250 816 250 1647 
Q 250 2184 428 2587 
Q 606 2991 970 3192 
Q 1334 3394 1763 3394 
Q 2303 3394 2647 3120 
Q 2991 2847 3088 2344 
L 2541 2259 
Q 2463 2594 2264 2762 
Q 2066 2931 1784 2931 
Q 1359 2931 1093 2626 
Q 828 2322 828 1663 
Q 828 994 1084 691 
Q 1341 388 1753 388 
Q 2084 388 2306 591 
Q 2528 794 2588 1216 
z
" transform="scale(0.015625)"/>
       <path id="ArialMT-74" d="M 1650 503 
L 1731 6 
Q 1494 -44 1306 -44 
Q 1000 -44 831 53 
Q 663 150 594 308 
Q 525 466 525 972 
L 525 2881 
L 113 2881 
L 113 3319 
L 525 3319 
L 525 4141 
L 1084 4478 
L 1084 3319 
L 1650 3319 
L 1650 2881 
L 1084 2881 
L 1084 941 
Q 1084 700 1114 631 
Q 1144 563 1211 522 
Q 1278 481 1403 481 
Q 1497 481 1650 503 
z
" transform="scale(0.015625)"/>
       <path id="ArialMT-6f" d="M 213 1659 
Q 213 2581 725 3025 
Q 1153 3394 1769 3394 
Q 2453 3394 2887 2945 
Q 3322 2497 3322 1706 
Q 3322 1066 3130 698 
Q 2938 331 2570 128 
Q 2203 -75 1769 -75 
Q 1072 -75 642 372 
Q 213 819 213 1659 
z
M 791 1659 
Q 791 1022 1069 705 
Q 1347 388 1769 388 
Q 2188 388 2466 706 
Q 2744 1025 2744 1678 
Q 2744 2294 2464 2611 
Q 2184 2928 1769 2928 
Q 1347 2928 1069 2612 
Q 791 2297 791 1659 
z
" transform="scale(0.015625)"/>
       <path id="ArialMT-6e" d="M 422 0 
L 422 3319 
L 928 3319 
L 928 2847 
Q 1294 3394 1984 3394 
Q 2284 3394 2536 3286 
Q 2788 3178 2913 3003 
Q 3038 2828 3088 2588 
Q 3119 2431 3119 2041 
L 3119 0 
L 2556 0 
L 2556 2019 
Q 2556 2363 2490 2533 
Q 2425 2703 2258 2804 
Q 2091 2906 1866 2906 
Q 1506 2906 1245 2678 
Q 984 2450 984 1813 
L 984 0 
L 422 0 
z
" transform="scale(0.015625)"/>
      </defs>
      <use xlink:href="#ArialMT-53"/>
      <use xlink:href="#ArialMT-68" x="66.699219"/>
      <use xlink:href="#ArialMT-65" x="122.314453"/>
      <use xlink:href="#ArialMT-65" x="177.929688"/>
      <use xlink:href="#ArialMT-70" x="233.544922"/>
      <use xlink:href="#ArialMT-20" x="289.160156"/>
      <use xlink:href="#ArialMT-64" x="316.943359"/>
      <use xlink:href="#ArialMT-69" x="372.558594"/>
      <use xlink:href="#ArialMT-72" x="394.775391"/>
      <use xlink:href="#ArialMT-65" x="428.076172"/>
      <use xlink:href="#ArialMT-63" x="483.691406"/>
      <use xlink:href="#ArialMT-74" x="533.691406"/>
      <use xlink:href="#ArialMT-69" x="561.474609"/>
      <use xlink:href="#ArialMT-6f" x="583.691406"/>
      <use xlink:href="#ArialMT-6e" x="639.306641"/>
      <use xlink:href="#ArialMT-73" x="694.921875"/>
     </g>
    </g>
   </g>
  </g>
 </g>
 <defs>
  <clipPath id="pefbd2dfaaf">
   <rect x="61.746875" y="7.2" width="554.4" height="554.4"/>
  </clipPath>
 </defs>
</svg>
